# xmcd
#
# Track frame offsets:
#	150
#	18012
#	33188
#	50742
#	65908
#	80289
#	96018
#	107903
#	123572
#	138871
#	150685
#	164260
#	188030
#	201320
#
# Disc length: 2859 seconds
#
# Revision: 0
# Processed by: cddbd v1.5.2PL0 Copyright (c) Steve Scherf et al.
# Submitted via: EasyCDDAExtractor 2010.6.0.0
#
DISCID=b90b290e
DTITLE=Various Artist - Mr Music Country  05 2012
DYEAR=2012
DGENRE=Country
TTITLE0=Mary Chapin Carpenter - You win again
TTITLE1=Dierks Bentley - Up on the ridge
TTITLE2=Miranda Lambert - The House that built me
TTITLE3=Alabama - Down home
TTITLE4=Kellie Pickler - Things that never cross a man's mind
TTITLE5=Rosanne Cash - Take these chains from my heart
TTITLE6=Charlie Rich - Rollin' with the flow
TTITLE7=Tanya Tucker - Down to my last teardrop
TTITLE8=Chris Young - The man I want to be
TTITLE9=Anne Murray - ('til) I kissed you
TTITLE10=Dan Seals - Three time loser
TTITLE11=Deana Carter - Angels working overtime
TTITLE12=Chris Cagle - What kinda gone
TTITLE13=Sweethearts Of The Rodeo - Chains of gold
EXTD=
EXTT0=
EXTT1=
EXTT2=
EXTT3=
EXTT4=
EXTT5=
EXTT6=
EXTT7=
EXTT8=
EXTT9=
EXTT10=
EXTT11=
EXTT12=
EXTT13=
PLAYORDER=
